<?xml version="1.0" encoding="UTF-8"?>
<svg width="12px" height="12px" viewBox="0 0 12 12" version="1.1" xmlns="http://www.w3.org/2000/svg" xmlns:xlink="http://www.w3.org/1999/xlink">
    <!-- Generator: Sketch 53.2 (72643) - https://sketchapp.com -->
    <title>Icons/Star</title>
    <desc>Created with Sketch.</desc>
    <defs>
        <path d="M5.94027273,1.09090907 L7.55972728,4.63636363 L11.0683637,4.63636363 L8.63918183,7.0909091 L9.17536365,10.9090909 L5.94027273,8.6809091 L2.69754544,10.9090909 L3.5110909,7.0909091 L1.0821818,4.63636363 L4.3210909,4.63636363 L5.94054545,1.09090907 L5.94027273,1.09090907 Z M5.94054545,0.272727249 C5.62334738,0.273083123 5.33554656,0.458554762 5.20418181,0.747272705 L3.80290908,3.81818181 L1.0821818,3.81818181 C0.75353361,3.81896308 0.457956027,4.01831362 0.334090885,4.32272727 C0.208681284,4.62834128 0.277800913,4.97930585 0.50972725,5.21454545 L2.62690908,7.35545455 L1.90609089,10.7372727 C1.83631856,11.0634525 1.97030384,11.3994928 2.24536362,11.5881818 C2.37874523,11.6788147 2.53628489,11.7272738 2.69754544,11.7272728 C2.86030657,11.7277712 3.01929351,11.6782663 3.15299999,11.5854546 L5.93972727,9.67090911 L8.71909092,11.5854546 C8.85310439,11.6782666 9.01235002,11.7277632 9.17536365,11.7272728 C9.32667918,11.7272477 9.47494573,11.6847238 9.60327274,11.6045455 C9.87639061,11.4316212 10.0226482,11.1145519 9.97690911,10.7945455 L9.49772729,7.38000001 L11.6408182,5.21454545 C11.8725449,4.97920032 11.9416394,4.62836322 11.8164546,4.32272727 C11.6925894,4.01831362 11.3970118,3.81896308 11.0683637,3.81818181 L8.07763637,3.81818181 L6.67554546,0.747272705 C6.54418071,0.458554762 6.25637989,0.273083123 5.93918182,0.272727249 L5.93918182,0.272727249 L5.94054545,0.272727249 Z" id="path-1"></path>
    </defs>
    <g id="Symbols" stroke="none" stroke-width="1" fill="none" fill-rule="evenodd">
        <g id="items/rating" transform="translate(-64.000000, 0.000000)">
            <g id="Icons/Star" transform="translate(64.000000, 0.000000)">
                <mask id="mask-2" fill="#39b54a">
                    <use xlink:href="#path-1"></use>
                </mask>
                <g fill-rule="nonzero"></g>
                <g id="Color/grey2" mask="url(#mask-2)" fill="#39b54a" fill-rule="evenodd">
                    <rect id="Rectangle" x="0" y="0" width="12" height="12"></rect>
                </g>
            </g>
        </g>
    </g>
</svg>