<?xml version="1.0" encoding="UTF-8"?>
<svg width="24px" height="24px" viewBox="0 0 24 24" version="1.1" xmlns="http://www.w3.org/2000/svg" xmlns:xlink="http://www.w3.org/1999/xlink">
    <!-- Generator: Sketch 53.2 (72643) - https://sketchapp.com -->
    <title>Icons/Arrow-2</title>
    <desc>Created with Sketch.</desc>
    <defs>
        <path d="M12,-5.00000006e-08 C5.37258297,-5.00000006e-08 -4.99998869e-08,5.37258297 -4.99998869e-08,12 C-4.99998869e-08,18.627417 5.37258297,24.0000001 12,24.0000001 C18.627417,24.0000001 24.0000001,18.627417 24.0000001,12 C23.9924852,5.37569821 18.6243018,0.00751476359 12,-5.00000006e-08 L12,-5.00000006e-08 Z M12,22.3636364 C6.27632166,22.3636364 1.63636359,17.7236783 1.63636359,12 C1.63636359,6.27632166 6.27632166,1.63636359 12,1.63636359 C17.7236783,1.63636359 22.3636364,6.27632166 22.3636364,12 C22.3636364,17.7236783 17.7236783,22.3636364 12,22.3636364 Z M11.1529091,11.9454545 L14.9127273,8.18727271 C15.1289819,7.98262724 15.2169982,7.6766609 15.1425402,7.38838704 C15.0680821,7.10011319 14.8429043,6.87504155 14.5545954,6.80071945 C14.2662865,6.72639735 13.9603617,6.814558 13.7558182,7.03090907 L8.8390909,11.9454545 L10.1001818,13.2054546 L13.7645455,16.8709091 C14.0863176,17.1754077 14.5919935,17.168495 14.9053218,16.8553144 C15.2186502,16.5421338 15.2258014,16.0364612 14.9214546,15.7145455 L11.1529091,11.9454545 Z" id="path-1"></path>
    </defs>
    <g id="Symbols" stroke="none" stroke-width="1" fill="none" fill-rule="evenodd">
        <g id="items/pagination">
            <g id="Icons/Arrow-3">
                <mask id="mask-2" fill="white">
                    <use xlink:href="#path-1"></use>
                </mask>
                <g fill-rule="nonzero"></g>
                <g id="Color/green" mask="url(#mask-2)" fill="#39B54A" fill-rule="evenodd">
                    <rect id="Rectangle" x="0" y="0" width="24" height="24"></rect>
                </g>
            </g>
        </g>
    </g>
</svg>