<?xml version="1.0" encoding="UTF-8"?>
<svg width="24px" height="24px" viewBox="0 0 24 24" version="1.1" xmlns="http://www.w3.org/2000/svg" xmlns:xlink="http://www.w3.org/1999/xlink">
    <!-- Generator: Sketch 53.2 (72643) - https://sketchapp.com -->
    <title>Icons/Arrow</title>
    <desc>Created with Sketch.</desc>
    <defs>
        <path d="M12,-5.00000006e-08 C5.37258297,-5.00000006e-08 -5.00000006e-08,5.37258297 -5.00000006e-08,12 C-5.00000006e-08,18.627417 5.37258297,24.0000001 12,24.0000001 C18.627417,24.0000001 24.0000001,18.627417 24.0000001,12 C23.9924852,5.37569821 18.6243018,0.00751476359 12,-4.99997525e-08 L12,-5.00000006e-08 Z M12,22.3636364 C6.27632166,22.3636364 1.63636359,17.7236783 1.63636359,12 C1.63636359,6.27632166 6.27632166,1.63636359 12,1.63636359 C17.7236783,1.63636359 22.3636364,6.27632166 22.3636364,12 C22.3636364,17.7236783 17.7236783,22.3636364 12,22.3636364 L12,22.3636364 Z M17.4545455,11.4545455 L12.5454545,11.4545455 L12.5454545,5.45454543 C12.5454545,5.00267608 12.1791421,4.63636361 11.7272727,4.63636361 C11.2754034,4.63636361 10.9090909,5.00267608 10.9090909,5.45454543 L10.9090909,13.0909091 L17.4545455,13.0909091 C17.9064148,13.0909091 18.2727273,12.7245966 18.2727273,12.2727273 C18.2727273,11.8208579 17.9064148,11.4545455 17.4545455,11.4545455 Z" id="path-1"></path>
    </defs>
    <g id="Symbols" stroke="none" stroke-width="1" fill="none" fill-rule="evenodd">
        <g id="button/text+left-icon" transform="translate(-6.000000, -10.000000)">
            <g id="Icons/Time" transform="translate(6.000000, 10.000000)">
                <mask id="mask-2" fill="white">
                    <use xlink:href="#path-1"></use>
                </mask>
                <g fill-rule="nonzero"></g>
                <g id="Color/green" mask="url(#mask-2)" fill="#39B54A" fill-rule="evenodd">
                    <rect id="Rectangle" x="0" y="0" width="24" height="24"></rect>
                </g>
            </g>
        </g>
    </g>
</svg>