<?xml version="1.0" encoding="UTF-8"?>
<svg width="24px" height="24px" viewBox="0 0 24 24" version="1.1" xmlns="http://www.w3.org/2000/svg" xmlns:xlink="http://www.w3.org/1999/xlink">
    <!-- Generator: Sketch 53.2 (72643) - https://sketchapp.com -->
    <title>Icons/Close-1</title>
    <desc>Created with Sketch.</desc>
    <defs>
        <path d="M12,-5.00000006e-08 C5.37258297,-5.00000006e-08 -5.00000006e-08,5.37258297 -5.00000006e-08,12 C-5.00000006e-08,18.627417 5.37258297,24.0000001 12,24.0000001 C18.627417,24.0000001 24.0000001,18.627417 24.0000001,12 C23.9924852,5.37569821 18.6243018,0.00751476359 12,-5.00000006e-08 L12,-5.00000006e-08 Z M12,22.3636364 C6.27632166,22.3636364 1.63636359,17.7236783 1.63636359,12 C1.63636359,6.27632166 6.27632166,1.63636359 12,1.63636359 C17.7236783,1.63636359 22.3636364,6.27632166 22.3636364,12 C22.3636364,17.7236783 17.7236783,22.3636364 12,22.3636364 Z M16.3849091,7.59272725 C16.0594839,7.27963343 15.5419284,7.28939863 15.2285455,7.61454544 L12.126,10.8436364 L8.7490909,7.59272725 C8.54060496,7.37962347 8.2327084,7.29678831 7.9454402,7.37651655 C7.658172,7.45624479 7.43700801,7.68591509 7.36817297,7.97598637 C7.29933793,8.26605764 7.39372873,8.57061032 7.61454544,8.77090908 L10.9685455,12 L7.61454544,15.2290909 C7.28924394,15.5423216 7.27923454,16.0598804 7.5921818,16.3854546 C7.74569368,16.5468573 7.95907375,16.6376574 8.18181817,16.6363637 C8.39341896,16.636228 8.59673834,16.5541183 8.7490909,16.4072727 L12.126,13.1563636 L15.2285455,16.3854546 C15.5419284,16.7106014 16.0594839,16.7203666 16.3849091,16.4072727 C16.7103654,16.0941944 16.720619,15.5766322 16.4078182,15.2509091 L13.2829091,12 L16.4078182,8.7490909 C16.720619,8.42336784 16.7103654,7.90580559 16.3849091,7.59272725 L16.3849091,7.59272725 Z" id="path-1"></path>
    </defs>
    <g id="Page-1" stroke="none" stroke-width="1" fill="none" fill-rule="evenodd">
        <g id="Desktop-SERP.hub/offer-cart_3" transform="translate(-1027.000000, -211.000000)">
            <g id="popup" transform="translate(413.000000, 211.000000)">
                <g id="Icons/Close-1" transform="translate(614.000000, 0.000000)">
                    <mask id="mask-2" fill="white">
                        <use xlink:href="#path-1"></use>
                    </mask>
                    <g fill-rule="nonzero"></g>
                    <g id="Color/black" mask="url(#mask-2)" fill="#292929" fill-rule="evenodd">
                        <rect id="Rectangle" x="0" y="0" width="24" height="24"></rect>
                    </g>
                </g>
            </g>
        </g>
    </g>
</svg>