<?xml version="1.0" encoding="UTF-8"?>
<svg width="24px" height="24px" viewBox="0 0 24 24" version="1.1" xmlns="http://www.w3.org/2000/svg" xmlns:xlink="http://www.w3.org/1999/xlink">
    <!-- Generator: Sketch 53.2 (72643) - https://sketchapp.com -->
    <title>Icons/Glasses</title>
    <desc>Created with Sketch.</desc>
    <defs>
        <path d="M23.0144,11.2266667 L17.6810667,4.5653333 C17.5475256,4.39928461 17.3525227,4.29428121 17.1403863,4.27419254 C16.9282499,4.25410386 16.7170031,4.32063666 16.5546667,4.45866664 C16.214644,4.74957592 16.169171,5.2587781 16.4522667,5.60533331 L20.9141334,11.2053333 L2.64053329,11.2053333 L6.98933331,5.63199997 C7.28776435,5.300211 7.26619978,4.79071827 6.94079998,4.4853333 C6.78573108,4.33942437 6.57835295,4.26225016 6.36562273,4.27128542 C6.15289251,4.28032068 5.95280506,4.37480112 5.81066664,4.5333333 L0.477333285,11.2 C0.626133286,11.0346667 -5.00000192e-08,12.656 -5.00000192e-08,12.8053333 L-5.00000192e-08,14.304 C-0.02072126,17.2728086 2.36459719,19.6986775 5.33333331,19.728 C8.08194039,19.7453033 10.3923229,17.6682695 10.6666667,14.9333333 L12.8,14.9333333 C13.0743438,17.6682695 15.3847263,19.7453033 18.1333334,19.728 C21.1020695,19.6986775 23.4873879,17.2728086 23.4666667,14.304 L23.4666667,12.8053333 C23.4666667,12.6773333 22.8549334,11.0346667 23.0144,11.2266667 Z M12.8,12.8053333 L12.8,13.3386667 L10.6666667,13.3386667 L10.6666667,12.8053333 L12.8,12.8053333 Z M9.06666665,14.304 C9.06666665,16.3658631 7.39519638,18.0373334 5.33333331,18.0373334 C3.27147023,18.0373334 1.59999996,16.3658631 1.59999996,14.304 L1.59999996,12.8053333 L9.06666665,12.8053333 L9.06666665,14.304 Z M21.8666667,14.304 C21.8666667,16.3658631 20.1951964,18.0373334 18.1333334,18.0373334 C16.0714703,18.0373334 14.4,16.3658631 14.4,14.304 L14.4,12.8053333 L21.8666667,12.8053333 L21.8666667,14.304 L21.8666667,14.304 Z M5.33333331,17.8293334 C5.39922998,17.8308987 5.46495184,17.8218957 5.52799997,17.8026667 C7.12867531,17.3923411 8.25293592,15.9563696 8.26719998,14.304 C8.26719998,13.8621722 7.90902778,13.504 7.46719998,13.504 C7.02537218,13.504 6.66719998,13.8621722 6.66719998,14.304 C6.64779302,15.2174246 6.02069352,16.0053916 5.1349333,16.2293334 C4.7055075,16.3455755 4.44866081,16.7847311 4.55786664,17.216 C4.64396685,17.574823 4.96432669,17.8282025 5.33333331,17.8293334 L5.33333331,17.8293334 Z M18.1333334,17.8293334 C18.19923,17.8308987 18.2649519,17.8218957 18.328,17.8026667 C19.9286754,17.3923411 21.052936,15.9563696 21.0672,14.304 C21.0672,13.8621722 20.7090278,13.504 20.2672,13.504 C19.8253722,13.504 19.4672,13.8621722 19.4672,14.304 C19.4477931,15.2174246 18.8206936,16.0053916 17.9349334,16.2293334 C17.5055076,16.3455755 17.2486609,16.7847311 17.3578667,17.216 C17.4439669,17.574823 17.7643267,17.8282025 18.1333334,17.8293334 L18.1333334,17.8293334 Z" id="path-1"></path>
    </defs>
    <g id="Icons/Glasses" stroke="none" stroke-width="1" fill="none" fill-rule="evenodd">
        <mask id="mask-2" fill="white">
            <use xlink:href="#path-1"></use>
        </mask>
        <g fill-rule="nonzero"></g>
        <g id="Color/black" mask="url(#mask-2)" fill="#292929">
            <rect id="Rectangle" x="0" y="0" width="24" height="24"></rect>
        </g>
    </g>
</svg>