<?xml version="1.0" encoding="UTF-8"?>
<svg width="12px" height="12px" viewBox="0 0 12 12" version="1.1" xmlns="http://www.w3.org/2000/svg" xmlns:xlink="http://www.w3.org/1999/xlink">
    <!-- Generator: Sketch 53.2 (72643) - https://sketchapp.com -->
    <title>Icons/Arrow-1</title>
    <desc>Created with Sketch.</desc>
    <defs>
        <path d="M11.5457143,11.26 L8.89942858,8.6057143 C10.7510676,6.74018659 10.8057627,3.7475341 9.023528,1.81559203 C7.24129327,-0.116350036 4.25394703,-0.302690764 2.24544524,1.39279776 C0.236943443,3.08828629 -0.0806818586,6.06453806 1.52477531,8.14570794 C3.13023249,10.2268778 6.08962306,10.6751723 8.23942858,9.16285716 L10.9382857,11.8714286 C11.0475069,11.9799353 11.2063191,12.0219308 11.3548992,11.9815958 C11.5034794,11.9412608 11.6192546,11.8247231 11.6586135,11.6758815 C11.6979725,11.5270398 11.6549355,11.3685067 11.5457143,11.26 Z M1.43142855,5.17142857 C1.43852398,2.95845426 3.23699189,1.16956834 5.44997252,1.17429484 C7.66295316,1.17902134 9.45376326,2.97557327 9.4514057,5.18855769 C9.44904813,7.40154212 7.65441425,9.19427435 5.44142857,9.19428573 C4.37614667,9.19277154 3.35511864,8.76803929 2.60305645,8.01356579 C1.85099425,7.25909228 1.42953263,6.23670986 1.43142855,5.17142857 L1.43142855,5.17142857 Z" id="path-1"></path>
    </defs>
    <g id="Symbols" stroke="none" stroke-width="1" fill="none" fill-rule="evenodd">
        <g id="Field/text_rigth-icon" transform="translate(-362.000000, -19.000000)">
            <g id="Icons/Search" transform="translate(362.000000, 19.000000)">
                <mask id="mask-2" fill="white">
                    <use xlink:href="#path-1"></use>
                </mask>
                <g fill-rule="nonzero"></g>
                <g id="Color/black" mask="url(#mask-2)" fill="#292929" fill-rule="evenodd">
                    <rect id="Rectangle" x="0" y="0" width="12" height="12"></rect>
                </g>
            </g>
        </g>
    </g>
</svg>